<?xml version="1.0" standalone="no"?>
<!DOCTYPE svg PUBLIC "-//W3C//DTD SVG 20010904//EN"
 "http://www.w3.org/TR/2001/REC-SVG-20010904/DTD/svg10.dtd">
<svg width="368.0592486032866" height="82.32393888852009" viewBox="0 -1 368.0592486032866 82.32393888852009" class="css-1j8o68f"><defs id="SvgjsDefs2032"></defs><g id="SvgjsG2033" featurekey="symbolFeature-0" transform="matrix(29.553329799878135,0,0,29.553329799878135,-22.081726978572867,-35.09802980038518)" fill="#40a8c4"><title xmlns="http://www.w3.org/2000/svg">icon</title><path xmlns="http://www.w3.org/2000/svg" d="M.76105,1.331a.185.185,0,0,0,.07256.16612.61547.61547,0,0,0,.11976.07763c.06486.03511.12857.071.19657.1009a4.51654,4.51654,0,0,0,.447.165q.05491.01754.11012.03431a1.9216,1.9216,0,0,0-.22417-.0137l-.00412-.0022a.55261.55261,0,0,0-.36048-.05595l-.00688.00157c.01.001.00547.00168-.0138.00222l-.02047.00536a.42511.42511,0,0,0-.0487.0177.24071.24071,0,0,0-.08055.0596.19841.19841,0,0,0-.049.12857A.43429.43429,0,0,0,.797,2.134a.39625.39625,0,0,0-.01307.359.76229.76229,0,0,0,.05106.09372.90786.90786,0,0,0,.06528.0886,1.14538,1.14538,0,0,0,.16167.15781,2.10421,2.10421,0,0,0,.3769.23514q.1068.05459.21778.10191l-.01448.008a.27931.27931,0,0,0-.13491.26538.26458.26458,0,0,0,.16221.19545.82636.82636,0,0,0,.27659.07328.94235.94235,0,0,0,.24274.00117,1.24591,1.24591,0,0,0,.32014-.09356.739.739,0,0,0,.24393-.16281,1.09462,1.09462,0,0,0,.17664-.00234.5954.5954,0,0,0,.33207-.13288A.2128.2128,0,0,0,3.279,2.9862q-.018-.019-.03726-.03656a.62385.62385,0,0,0,.01745-.17446.88986.88986,0,0,0-.10509-.3632,1.50015,1.50015,0,0,0-.108-.18148c.20808.084.40932.182.61517.27a2.51309,2.51309,0,0,0,.40626.14621c.04488.01062.08811.02477.13264.03607.05223.01324.13819.01588.16406-.06147a.07709.07709,0,0,0-.01665-.09122,1.38784,1.38784,0,0,0-.413-.22354c-.14878-.05366-.30121-.0995-.45486-.14188-.17285-.04772-.347-.09227-.5212-.13678Q2.91365,2.01347,2.86833,2A1.84124,1.84124,0,0,0,2.644,1.78032a2.93465,2.93465,0,0,0-.79072-.4652,2.23475,2.23475,0,0,0-.71664-.15748.52832.52832,0,0,0-.27885.04191A.18386.18386,0,0,0,.76105,1.331Zm.38743.80653-.00166-.00178a.53345.53345,0,0,1-.05946-.077c.02063-.00777.04128-.01457.06028-.02026a.95523.95523,0,0,1,.19161-.03738q.04087-.0034.08133-.00423c.01338.00779.02643.016.039.02486a.52964.52964,0,0,1,.05057.04065l.01649.01581.02325.02753a.39451.39451,0,0,1,.06944.13344,1.08126,1.08126,0,0,1,.04856.221,2.07419,2.07419,0,0,1-.23668-.11475,1.63408,1.63408,0,0,1-.18373-.123c-.02489-.01925-.04966-.03911-.07312-.06014l-.01726-.01619Zm.6464.37152c.0004-.06128.00339-.12249-.00143-.18312a.59592.59592,0,0,0-.04973-.19963A.51956.51956,0,0,0,1.673,2.01155q.03228.004.06435.00891.08515.01291.17046.0306a.2569.2569,0,0,0,.04785.14244,1.14215,1.14215,0,0,0,.09211.12841,1.08575,1.08575,0,0,0,.14322.13952,1.11005,1.11005,0,0,0-.21832-.04051.08976.08976,0,0,0-.07309.037.094.094,0,0,0-.01672.07983l.00026.00126-.048-.01588Zm1.04133-.03794.01443.01427.015.01658a.42735.42735,0,0,1,.03782.05054l.01062.01855c-.0043-.00774.00542.01284.00711.01785l.00428.01817.00023.00419.00012.00192-.00094.005-.0004.001-.00114.00246-.00423.0054-.00042.00051L2.908,2.63658l-.00975.007-.02175.01118-.022.00917c.01464-.00564-.01.00253-.01057.00269a.398.398,0,0,1-.0407.00887,3.05586,3.05586,0,0,0-.30182-.203A1.47416,1.47416,0,0,1,2.169,2.211a1.00192,1.00192,0,0,1-.08666-.1181,2.36322,2.36322,0,0,1,.48061.1863A1.23133,1.23133,0,0,1,2.83621,2.47109Zm-.16038.37569.05267-.00252.01518.01333a.77932.77932,0,0,1,.13243.15376c.009.01366.01771.02753.02589.04175l.00982.01906.00049.00108a.60642.60642,0,0,1-.17063-.04175,1.19779,1.19779,0,0,1-.1957-.08474,1.44738,1.44738,0,0,1-.17081-.11662A1.846,1.846,0,0,0,2.67583,2.84678Zm.1383-.607-.00652-.00444a1.7322,1.7322,0,0,0-.21378-.12083q.07354.01849.14729.03656Q2.77869,2.19436,2.81413,2.23981Zm-1.32774.64191c-.04938-.02557-.11861-.06526-.17592-.10219a1.54834,1.54834,0,0,1-.173-.12923c-.02578-.02236-.05045-.046-.07426-.07059L1.05188,2.568l-.01474-.01623c-.01317-.01471-.02566-.03-.03784-.04559a.76528.76528,0,0,1-.05621-.0818l-.00922-.016L.9267,2.39388A.42434.42434,0,0,1,.91,2.352a.21569.21569,0,0,1-.00758-.13442l.00114-.00645L.911,2.194l.0062-.01214C.91453,2.187.9223,2.17367.92366,2.17163l.01282-.017.01273.02224a.5659.5659,0,0,0,.07426.0952,1.27888,1.27888,0,0,0,.32711.23642,2.89488,2.89488,0,0,0,.68551.254c.01752.01668.03546.03291.05338.049a2.30781,2.30781,0,0,0,.3348.26393,1.26594,1.26594,0,0,0,.233.11148l-.021.00117-.05195.00154c-.03766.00066-.075-.00044-.11213-.00245A1.7802,1.7802,0,0,1,2.25933,3.162l-.00639-.0011-.00608-.00122-.02507-.005-.05-.011c-.036-.00833-.07162-.01771-.107-.02772-.06781-.01913-.13431-.04147-.19984-.06575A3.37616,3.37616,0,0,1,1.48639,2.88172Zm.92142.66366a1.12182,1.12182,0,0,1-.17264.04748c-.02044.00407-.041.00727-.06137.00978l-.0044.00049-.00756.00063-.02928.00143A1.08931,1.08931,0,0,1,1.87571,3.582a.72068.72068,0,0,1-.13241-.04191.24.24,0,0,1-.04638-.02456.27647.27647,0,0,1-.04411-.03481l-.00589-.00648-.008-.01039-.01266-.02035c.00365.00636-.00482-.01324-.006-.01717l-.0026-.01015c.0018.00763-.00077-.00814-.00093-.01069-.0003-.00458-.00023-.00926-.00019-.01389l0-.00164.00033-.00276a.21826.21826,0,0,1,.00634-.03041l.00058-.00232.00157-.00409.00664-.016.00659-.01273c-.00437.00814.00594-.00811.00765-.01039l.0072-.00854c-.0043.00491.00468-.00433.00646-.00587l.01221-.00975.00234-.0018.00166-.00094A.233.233,0,0,1,1.70445,3.27l.00973-.00386.01705-.005c.01092-.00295.022-.0051.033-.007l.01707-.00255.0113-.00124a.62187.62187,0,0,1,.07071-.00117,2.50626,2.50626,0,0,0,.37646.09637q.05024.00867.10139.01448a1.80054,1.80054,0,0,0,.20761.06617q.03551.00835.07171.01478A.92986.92986,0,0,1,2.40781,3.54538Zm.79233-.44653a.249.249,0,0,1,.02056.03193l.00274.00662.00517.01579.00105.0043.00077.01495L3.2297,3.177l-.00222.00842-.0043.00957L3.22212,3.197l-.00243.00344-.01261.01567-.00014.00012-.00522.005a.328.328,0,0,1-.03962.031l-.01307.008-.02032.01132c-.01375.00723-.02783.01349-.042.01937a.50119.50119,0,0,1-.0871.02528.69994.69994,0,0,1-.14991.01366.6363.6363,0,0,0,.24573-.13234.46592.46592,0,0,0,.09248-.11386Zm-.11957-.32659c.00161.01385.00262.02793.00335.04206l.00051.02007c-.03672-.02206-.07459-.04245-.11288-.06184a.24905.24905,0,0,0,.074-.07349l.01375-.02519c.00631.02154.01186.04358.01642.06594l.00208.01158ZM.992,1.321l.02526-.00166.033-.0007c.02318-.00014.04624.00063.06919.00192.0342.00187.06809.00519.10179.009a2.29822,2.29822,0,0,1,.80215.26175c.05232.02741.12551.07017.18389.107.065.04107.12792.08516.18892.13173q.04077.03108.08062.06425c-.038-.0094-.07639-.01766-.11548-.02341-.2491-.06841-.49645-.14052-.74038-.22155a4.26662,4.26662,0,0,1-.44438-.16873c-.05426-.025-.10759-.05176-.16095-.07836l-.00765-.004L.99757,1.39275l-.03116-.0192A.28072.28072,0,0,1,.93778,1.352L.93039,1.34511.923,1.33557l.00014-.00009.0044-.00178.00622-.00185A.34865.34865,0,0,1,.992,1.321Z" fill="#40a8c4"></path></g><g id="SvgjsG2034" featurekey="nameFeature-0" transform="matrix(1.7759857135269723,0,0,1.7759857135269723,127.02618743334656,-21.256999718712624)" fill="#235784"><path d="M9.68 34.16 c0.36 0.32 -0.16 0.6 -0.16 0.6 c-0.48 0.6 -5.08 5.24 -7.76 5.24 c-0.32 0 -0.6 -0.08 -0.84 -0.2 c-0.4 -0.2 -1.04 -0.76 -0.92 -2.16 c0.2 -2 1.96 -4.96 3.8 -5.6 c0.8 -0.28 1.48 -0.24 1.92 0.16 c0.8 0.68 0.08 1.92 0.04 2.08 c0 0 -0.2 0.4 -0.64 0.36 c-0.4 0 -0.68 -0.48 -0.68 -0.48 l0 0 c0.08 -0.32 0.72 -0.92 0.56 -1.08 c-0.16 -0.12 -0.44 -0.08 -0.84 0.04 c-1.24 0.44 -2.84 2.92 -3 4.64 c-0.04 0.36 0 1.2 0.32 1.36 c1.16 0.64 5.92 -2.76 7.28 -4.44 c0 0 0.4 -0.96 0.92 -0.52 z M19.532 34.36 c0.32 0.32 -0.16 0.6 -0.16 0.6 c-0.36 0.48 -2.92 3.04 -5.32 4.44 c-1.24 0.64 -1.88 0.32 -1.96 0.12 c-0.32 -0.56 0.04 -1.52 0.84 -3.6 c0.2 -0.52 0.48 -1.2 0.6 -1.64 c-0.32 -0.08 -0.88 -0.28 -1.16 -0.44 c-1.72 3.36 -4.48 8.28 -4.64 8.56 c0 0 0.08 0.88 -0.48 0.56 c-0.56 -0.28 0 -0.96 0 -0.96 c1.04 -1.84 3.04 -5.96 4.4 -8.68 c-0.8 -0.6 -1.16 -1.32 -1.08 -2.2 c0.08 -0.8 0.6 -1.52 1.32 -1.8 c0.6 -0.24 1.24 -0.16 1.64 0.2 c0.24 0.24 0.6 0.72 0.36 1.64 c-0.08 0.36 -0.36 0.96 -0.72 1.72 c0.28 0.16 1.44 0.64 1.52 0.8 c0.2 0.44 -0.04 1.04 -0.68 2.68 c-0.24 0.6 -0.68 2 -0.84 2.6 c1.24 -0.12 4.96 -3.48 5.44 -4.08 c0 0 0.36 -0.96 0.92 -0.52 z M12.772 30.84 c0.08 -0.24 0.04 -0.4 0 -0.44 s-0.12 -0.04 -0.2 -0.04 s-0.16 0 -0.24 0.04 c-0.12 0.04 -0.56 0.24 -0.64 0.84 c0 0.28 0.08 0.64 0.48 1.04 c0.32 -0.64 0.52 -1.16 0.6 -1.44 z M20.344 39.72 c-0.4 0 -0.72 -0.2 -0.84 -0.56 c-0.6 -1.52 2.56 -6.4 2.96 -7.44 c0 0 0.44 -1.08 1.16 -1 c0.76 0.08 0.96 0.96 0.8 1.32 c-0.12 0.32 -0.88 0.56 -0.96 0.68 c-1.08 2.44 -3.04 4.84 -2.96 5.84 c1.2 0.8 5.12 -2.92 6.52 -4.24 c0.12 -0.08 0.28 -0.56 0.6 -0.44 c0.4 0.16 0.12 0.52 -0.04 0.68 c-1.32 1.4 -5.08 5.2 -7.16 5.16 l-0.08 0 z M25.344 28.32 c0 0.4 0 0.76 -0.36 0.76 c-0.32 0 -0.6 -0.36 -0.6 -0.76 c0 -0.44 0.28 -0.76 0.6 -0.76 c0.36 0 0.52 0.36 0.36 0.76 z M32.79600000000001 32.92 c-0.2 0.84 -0.56 1.36 -0.88 1.4 c-0.84 0.16 -0.2 -0.96 -0.28 -1.4 c-0.12 -0.64 -1.12 0 -1.12 0.52 c0 0.84 0.32 1.72 1 2.6 l0.12 0.04 c1.8 -1.48 5.4 -2.4 5.44 -2.4 c0 0 0.2 0.04 0.2 0.2 c0.04 0.12 -0.16 0.4 -0.16 0.4 c-1.28 0 -5 2.6 -5.12 2.6 c0.88 1.48 0 3.8 -1.48 4.72 c-0.6 0.52 -1.36 0.84 -2.2 0.96 c-1.04 -0.16 -1.56 -0.48 -1.56 -1 l0 -0.28 c0 -0.8 3.36 -3.92 3.96 -4.4 c0.08 -0.12 0.08 -0.08 0.08 -0.2 c-0.92 -1.32 -1.36 -2.36 -1.36 -3.16 c0.24 -2.84 3.36 -1.64 3.36 -0.6 z M27.916000000000004 41.44 l0 0.04 c0 0.12 0.16 0.2 0.4 0.2 c1.04 0 3.6 -2.32 3.08 -3.92 l0.04 -0.36 l-0.24 0.36 c-1.84 1.48 -3.28 3.28 -3.28 3.68 z M74.368 17.44 c0.68 0.28 -0.16 0.96 -0.44 0.84 l-0.04 0 c-4.28 -1.84 -16.52 -2.16 -26.2 -1.8 c-4.48 8.2 -10.64 19.6 -10.36 26.12 c0.04 0.28 0.12 0.56 0.28 0.64 c1.52 0.76 4.36 -5.04 5.4 -6.64 c0 0 0.36 -0.96 0.88 -0.52 c0.36 0.32 -0.12 0.6 -0.12 0.6 c-0.52 0.6 -4.2 7.52 -5.92 7.4 c-1.6 -0.12 -1.64 -1.48 -1.64 -1.48 c-0.24 -6.76 5.56 -17.56 10 -26 c-6.64 0.28 -11.92 0.92 -12.04 0.96 c0 0 -0.64 -0.28 -0.64 -0.72 c0 -0.6 0.76 -0.8 0.76 -0.8 c0.56 0 5.96 -0.36 12.64 -0.52 c1.04 -2 1.6 -2.88 1.72 -3.12 c0 0 0.52 -0.64 1.2 -0.36 c0.52 0.24 0.32 0.92 0.32 0.92 c0 0.04 -0.72 0.72 -1.72 2.52 c9.56 -0.2 21.48 0.04 25.92 1.96 z M45.54 39.72 c-0.4 0 -0.72 -0.2 -0.84 -0.56 c-0.6 -1.52 2.56 -6.4 2.96 -7.44 c0 0 0.44 -1.08 1.16 -1 c0.76 0.08 0.96 0.96 0.8 1.32 c-0.12 0.32 -0.88 0.56 -0.96 0.68 c-1.08 2.44 -3.04 4.84 -2.96 5.84 c1.2 0.8 5.12 -2.92 6.52 -4.24 c0.12 -0.08 0.28 -0.56 0.6 -0.44 c0.4 0.16 0.12 0.52 -0.04 0.68 c-1.32 1.4 -5.08 5.2 -7.16 5.16 l-0.08 0 z M50.54 28.32 c0 0.4 0 0.76 -0.36 0.76 c-0.32 0 -0.6 -0.36 -0.6 -0.76 c0 -0.44 0.28 -0.76 0.6 -0.76 c0.36 0 0.52 0.36 0.36 0.76 z M63.072 36.04 c0 0 0.32 -0.16 0.48 0 c0.16 0.2 0 0.44 0 0.44 c-1.04 1.24 -4 3.6 -5.6 3.6 c-0.52 0 -0.84 -0.2 -0.96 -0.4 c-0.36 -0.4 -0.56 -1.16 0.44 -3.68 c-3 3.48 -3.96 3.16 -4.32 3.08 c-0.24 -0.08 -0.68 -0.36 -0.76 -1.16 l0 -0.04 c-0.08 -1.68 4.32 -6.32 5.16 -6.24 c0 0 0.6 0.16 0.56 0.44 c0 0.52 -0.52 0.72 -0.72 0.68 c-0.76 -0.36 -3.92 3.76 -3.84 5.08 l0 0.12 c0.48 -0.12 1.88 -1.2 4.08 -3.96 c0.64 -0.84 1.16 -1.44 1.44 -1.8 c0.36 -0.4 0.68 -0.8 1.12 -0.44 c0.16 0.12 0.36 0.4 0.12 0.8 c-1.52 2.88 -2.6 5.76 -2.4 6.36 c0.16 0.6 1.2 0.28 2.56 -0.64 c1 -0.68 2.08 -1.6 2.64 -2.24 z M75.24400000000001 35.519999999999996 c0.24 -0.52 0.8 -0.36 0.72 -0.16 c-1.88 4.48 -6.16 8.2 -7.36 8.2 c-0.12 0 -0.2 -0.04 -0.24 -0.04 c-0.2 -0.04 -0.64 -0.24 -0.64 -0.96 c-0.04 -1.04 0.76 -2.56 1.64 -4.28 c0.52 -1.08 1.04 -2.2 1.32 -3.08 c0.32 -0.88 0.24 -1.36 0.2 -1.48 c-1.12 -0.32 -2.88 2.52 -3.8 4.08 c-0.96 1.56 -1.36 2.2 -2 2.08 c-0.16 0 -0.48 -0.12 -0.6 -0.68 c-0.4 -1.88 1.8 -5.56 2 -5.96 c0 0 0.28 -0.96 1.2 -0.32 c0.44 0.28 -0.36 0.84 -0.36 0.84 c-0.6 1.04 -1.4 2.84 -1.64 4.12 c0.12 -0.24 0.28 -0.48 0.4 -0.68 c1.4 -2.32 3.32 -5.44 5.36 -4.48 l0.08 0.04 l0.08 0.04 c1.12 0.96 0.04 3.2 -1.2 5.8 c-0.64 1.28 -1.32 2.72 -1.48 3.6 c1.2 0.16 4.48 -2.88 6.32 -6.68 z M98.268 34.36 c0.32 0.32 -0.16 0.6 -0.16 0.6 c-0.36 0.48 -2.92 3.04 -5.32 4.44 c-1.24 0.64 -1.88 0.32 -1.96 0.12 c-0.32 -0.56 0.04 -1.52 0.84 -3.6 c0.2 -0.52 0.48 -1.2 0.6 -1.64 c-0.32 -0.08 -0.88 -0.28 -1.16 -0.44 c-1.72 3.36 -4.48 8.28 -4.64 8.56 c0 0 0.08 0.88 -0.48 0.56 c-0.56 -0.28 0 -0.96 0 -0.96 c1.04 -1.84 3.04 -5.96 4.4 -8.68 c-0.8 -0.6 -1.16 -1.32 -1.08 -2.2 c0.08 -0.8 0.6 -1.52 1.32 -1.8 c0.6 -0.24 1.24 -0.16 1.64 0.2 c0.24 0.24 0.6 0.72 0.36 1.64 c-0.08 0.36 -0.36 0.96 -0.72 1.72 c0.28 0.16 1.44 0.64 1.52 0.8 c0.2 0.44 -0.04 1.04 -0.68 2.68 c-0.24 0.6 -0.68 2 -0.84 2.6 c1.24 -0.12 4.96 -3.48 5.44 -4.08 c0 0 0.36 -0.96 0.92 -0.52 z M91.50800000000001 30.84 c0.08 -0.24 0.04 -0.4 0 -0.44 s-0.12 -0.04 -0.2 -0.04 s-0.16 0 -0.24 0.04 c-0.12 0.04 -0.56 0.24 -0.64 0.84 c0 0.28 0.08 0.64 0.48 1.04 c0.32 -0.64 0.52 -1.16 0.6 -1.44 z M108.80000000000001 36.04 c0 0 0.32 -0.16 0.48 0 c0.16 0.2 0 0.44 0 0.44 c-1.04 1.24 -4 3.6 -5.6 3.6 c-0.52 0 -0.84 -0.2 -0.96 -0.4 c-0.36 -0.4 -0.56 -1.16 0.44 -3.68 c-3 3.48 -3.96 3.16 -4.32 3.08 c-0.24 -0.08 -0.68 -0.36 -0.76 -1.16 l0 -0.04 c-0.08 -1.68 4.32 -6.32 5.16 -6.24 c0 0 0.6 0.16 0.56 0.44 c0 0.52 -0.52 0.72 -0.72 0.68 c-0.76 -0.36 -3.92 3.76 -3.84 5.08 l0 0.12 c0.48 -0.12 1.88 -1.2 4.08 -3.96 c0.64 -0.84 1.16 -1.44 1.44 -1.8 c0.36 -0.4 0.68 -0.8 1.12 -0.44 c0.16 0.12 0.36 0.4 0.12 0.8 c-1.52 2.88 -2.6 5.76 -2.4 6.36 c0.16 0.6 1.2 0.28 2.56 -0.64 c1 -0.68 2.08 -1.6 2.64 -2.24 z M120.93200000000002 16.36 c0.4 0.24 0.2 0.8 0.2 0.8 c-0.08 0.2 -5 10.12 -9.28 20.16 c1.28 0.32 2.6 -0.64 3.8 -1.6 c0.4 -0.32 0.72 -0.84 0.96 -1.32 c0 0 0.4 -0.4 0.76 -0.16 c0.36 0.2 0.24 0.72 0.24 0.72 c-0.36 0.64 -1 1 -1.52 1.4 c-1.52 1.24 -3.4 1.88 -4.32 1.8 c1.64 6.8 -3.56 16.56 -5.6 18.8 c-0.32 0.4 -0.76 0.8 -1.2 0.8 c-0.08 0 -0.16 -0.04 -0.24 -0.04 c-0.16 -0.04 -0.48 -0.2 -0.56 -0.76 l0 -0.04 l0 -0.04 c0.28 -4.16 3 -11.64 6.12 -19.04 c-0.16 -0.24 -0.32 -0.52 -0.32 -0.88 c0.04 -0.44 0.48 -0.44 0.84 -0.4 c4.24 -9.84 8.96 -19.2 9.32 -19.92 c0 0 0.36 -0.48 0.8 -0.28 z M109.09200000000001 49.36 c0.92 -2.36 2.2 -6.36 1.76 -9.84 c-2.64 6.4 -4.8 11.8 -5.28 15.68 c0.84 -1 2.2 -2.52 3.52 -5.84 z M128.104 16.36 c0.4 0.24 0.2 0.8 0.2 0.8 c-0.08 0.2 -5 10.12 -9.28 20.16 c1.28 0.32 2.6 -0.64 3.8 -1.6 c0.4 -0.32 0.72 -0.84 0.96 -1.32 c0 0 0.4 -0.4 0.76 -0.16 c0.36 0.2 0.24 0.72 0.24 0.72 c-0.36 0.64 -1 1 -1.52 1.4 c-1.52 1.24 -3.4 1.88 -4.32 1.8 c1.64 6.8 -3.56 16.56 -5.6 18.8 c-0.32 0.4 -0.76 0.8 -1.2 0.8 c-0.08 0 -0.16 -0.04 -0.24 -0.04 c-0.16 -0.04 -0.48 -0.2 -0.56 -0.76 l0 -0.04 l0 -0.04 c0.28 -4.16 3 -11.64 6.12 -19.04 c-0.16 -0.24 -0.32 -0.52 -0.32 -0.88 c0.04 -0.44 0.48 -0.44 0.84 -0.4 c4.24 -9.84 8.96 -19.2 9.32 -19.92 c0 0 0.36 -0.48 0.8 -0.28 z M116.26400000000001 49.36 c0.92 -2.36 2.2 -6.36 1.76 -9.84 c-2.64 6.4 -4.8 11.8 -5.28 15.68 c0.84 -1 2.2 -2.52 3.52 -5.84 z M135.716 33.24 c0.04 0.48 -0.56 0.36 -0.56 0.36 c-0.28 0.04 -1.24 0.08 -2.52 0.04 c-0.52 0 -1 0 -1.16 0.04 c0.04 0.96 -0.32 2.08 -0.88 3.12 c-0.92 1.6 -2.4 3.04 -3.84 3.04 c-0.36 0 -0.72 -0.08 -1.08 -0.28 c-0.56 -0.32 -0.88 -0.8 -1 -1.4 c-0.4 -2.4 3.92 -7.12 4.32 -7.56 c0 0 0.48 -0.48 0.8 -0.28 c0.52 0.36 0.08 0.88 0.08 0.88 c-1.44 1.56 -4.28 5.4 -4.08 6.76 c0.04 0.28 0.16 0.72 0.4 0.84 c1.04 0.56 2.52 -1.04 3.36 -2.56 c0.52 -0.88 0.8 -1.88 0.76 -2.6 c-0.52 -0.12 -0.84 -0.32 -0.96 -0.64 c-0.2 -0.44 0.08 -0.92 0.4 -1.2 l0.32 -0.24 l0.36 0.2 c0.32 0.2 0.56 0.44 0.76 0.76 c0.2 0.24 0.48 0.36 0.76 0.44 c1.08 0.12 2.08 0.12 2.72 0.04 c0 0 0.96 -0.44 1.04 0.24 z"></path></g></svg>

